<svg id="Layer_1" data-name="Layer 1" xmlns="http://www.w3.org/2000/svg" viewBox="0 0 800 257.32"><defs><style>.cls-1{fill:#00aeef;}.cls-2{fill:#636466;}</style></defs><path class="cls-1" d="M77.4,115.77c-27.14,0-49.14-19.68-49.14-43.93s22-43.92,49.14-43.92H464.49l-41.18,87.59Zm86.68-67.3c-.94-3.28-5-5.76-9.82-5.76-4.3,0-8,1.95-9.38,4.7L119.41,90.35a7.28,7.28,0,0,0-.57,2.79,7.81,7.81,0,0,0,8.07,7.51,8.2,8.2,0,0,0,6.77-3.43l17.24-30.95,3.73,27.35a8.09,8.09,0,0,0,16.14,0Zm-54-1.93L96.54,75.77l.14-26.55c0-3.58-3.37-6.49-7.52-6.49a7.63,7.63,0,0,0-6.92,4L68.94,75.92l.13-26.61c0-3.57-3.36-6.47-7.51-6.47s-7.51,2.9-7.51,6.47l.09,43.49c0,4.15,4.18,7.52,9.33,7.52,4,0,7.39-2,8.74-4.83L83.85,76.07l.2,17c0,4.16,4.18,7.52,9.34,7.52,4.19,0,7.74-2.22,8.93-5.28L123.1,51.87a9.9,9.9,0,0,0,1.12-3.25c0-3.12-3.28-5.62-7.31-5.62-3.09,0-5.72,1.46-6.81,3.54m202.59,54.64c16,.06,31.26-13.21,34.1-29.67S339,41.66,323,41.6s-31.28,13.2-34.12,29.65S296.69,101.1,312.69,101.18Zm-4.28-34.94c4.17-7.65,11.79-11.57,17-8.75s6.11,11.31,1.94,19-11.79,11.57-17,8.75S304.24,73.9,308.41,66.24Zm84.45,6.42L382.06,47.1c-1.5-2.61-5-4.43-9.08-4.43-5.44,0-9.87,3.24-9.87,7.23l-9.85,42.64A7.83,7.83,0,0,0,368,96.3l7.68-24.24L386.21,96c1.49,2.61,5,4.43,9.08,4.43,5.45,0,9.86-3.24,9.86-7.25L415,50.51a7.83,7.83,0,0,0-14.7-3.75ZM223.13,56.56a7,7,0,1,0,0-13.91l-37.71.09a7,7,0,0,0,0,13.93h10l-7.37,32.76a8.09,8.09,0,0,0-.27,2,8.42,8.42,0,0,0,16.82,0l6.61-35Zm34.2,43.69a19.82,19.82,0,0,0,4.43-1.06c11.81-3.8,18.74-14.34,15.46-23.54-1.75-4.87-6.09-8.17-11.38-10.05-1.31-.46-9.32-3.41-9.32-3.41a3.59,3.59,0,0,1-2.83-3.25c0-1.93,1.94-3.49,4.35-3.49a13.72,13.72,0,0,1,7.84,2.49,27.12,27.12,0,0,0,4,2.54,8.4,8.4,0,0,0,3.7.92A7.5,7.5,0,0,0,281.18,54a6.55,6.55,0,0,0-1.79-4.76c-8.31-8-20.55-6.45-20.55-6.45a33.45,33.45,0,0,0-4.52.51c-12.19,2.35-20.34,12-18.21,21.49,1.13,5.06,4.16,8.45,10.08,11.06,0,0,9.8,3.67,11.34,4.42a3.78,3.78,0,0,1,2.15,3.37,3.72,3.72,0,0,1-1.51,3,7.13,7.13,0,0,1-8.89.19c-4.85-3.47-6-5.31-8.58-6.32a8,8,0,0,0-3.78-.47,7.5,7.5,0,0,0-6.65,8.27c.22,1.79.47,3.35,1.73,4.51C232,92.83,238,102,257.33,100.25Z"/><path class="cls-1" d="M233.72,134.87a8.31,8.31,0,0,1,8.28-6.33c4.66,0,8.43,3.51,8.43,7.85l-8.22,37.09,14.79-.35c4.65,0,8.43,3.52,8.43,7.85s-3.78,7.85-8.43,7.85H232.34a8.15,8.15,0,0,1-8.42-7.85Z"/><path class="cls-1" d="M59.67,133.4c0-2.56-2.73-4.65-6.1-4.65l-8.84,0a7.75,7.75,0,0,0-8,7.45L27,178.81a7,7,0,0,0-.58,2.78,7.75,7.75,0,0,0,8,7.46,7.75,7.75,0,0,0,8-7.46l6.17-27.84,2.65,29.18a6.12,6.12,0,0,0,6.39,5.81,6.43,6.43,0,0,0,5.89-3.55l17.95-31.44-6.15,24.76a6.85,6.85,0,0,0-.64,2.88,8,8,0,0,0,16,0l9.82-48.16c0-2.57-2.72-4.65-6.09-4.65l-8.84,0a8.07,8.07,0,0,0-7.22,4.24l-15,25.69Z"/><path class="cls-1" d="M145.81,134.35c-1-3.45-5.19-6-10.25-6-4.5,0-8.32,2.05-9.8,4.92l-26.6,44.85a7.37,7.37,0,0,0-.59,2.9,8.15,8.15,0,0,0,8.42,7.85,8.6,8.6,0,0,0,7.07-3.58l18-32.32L136,181.49a8.14,8.14,0,0,0,8.42,7.85c4.66,0,8.44-3.51,8.44-7.85Z"/><path class="cls-1" d="M194.94,180.88a36.91,36.91,0,0,1,.62-6c2.06-8.42-3.49-7.82-3.49-7.82H180.15l-3.47,16.46a8.4,8.4,0,0,1-8,5.48c-4.65,0-8.43-3.53-8.43-7.86l10.28-44.79c0-4.34,3.77-7.85,8.43-7.85l28.25.08c8,1,13.57,8.84,12.53,17.61-.86,7.11-5.84,12.62-12,13.93l-.26.17s6.38-.22,6,9.66c0,0,1.8,12.08-4,17.21a8.84,8.84,0,0,1-6.12,2c-4.64,0-8.42-3.51-8.42-7.85m.42-26.68a7.32,7.32,0,0,0,7.26-6.72c.15-4.44-3.25-6.1-7.26-6.1l-9.25.35L183,154.78Z"/><path class="cls-1" d="M270.52,158.69c3-17.19,18.91-31,35.61-31S334,141.78,331,159s-18.93,31-35.63,31S267.55,175.86,270.52,158.69Zm22.41,14.58c5.46,2.94,13.42-1.15,17.78-9.15s3.45-16.86-2-19.81-13.42,1.15-17.79,9.15S287.45,170.31,292.93,173.27Z"/><path class="cls-1" d="M398.16,132.58c1.12-2.18,3.88-3.73,7.1-3.73,4.21,0,7.62,2.65,7.62,5.89a10.38,10.38,0,0,1-1.16,3.39L390,183.51c-1.23,3.2-4.93,5.53-9.31,5.53-5.39,0-9.77-3.53-9.77-7.86l-.2-17.77-12.16,20.27c-1.41,2.95-4.95,5-9.1,5-5.4,0-9.76-3.51-9.76-7.84l-.1-45.42c0-3.73,3.51-6.76,7.86-6.76s7.83,3,7.83,6.76l-.13,27.79,13.87-30.52a8,8,0,0,1,7.24-4.13c4.32,0,7.84,3,7.84,6.75L384,163.1l14.14-30.52"/><path class="cls-2" d="M491.45,67.84h-7.74V28.73H505v6.44H491.45v9.57H504v6.42H491.45Z"/><path class="cls-2" d="M519.36,67.82h-7.74V28.34h7.74Z"/><path class="cls-2" d="M547.58,67.82l-1-3.63h-.41a8.15,8.15,0,0,1-3.53,3.06,12,12,0,0,1-5.2,1.08q-5,0-7.53-2.68c-1.7-1.78-2.54-4.35-2.54-7.7V39.45h7.74V56a7.94,7.94,0,0,0,1.09,4.61,4,4,0,0,0,3.47,1.53,5.23,5.23,0,0,0,4.7-2.17q1.44-2.16,1.44-7.19V39.45h7.74V67.82Z"/><path class="cls-2" d="M561.3,32.12c0-2.52,1.41-3.78,4.21-3.78s4.22,1.26,4.22,3.78a3.68,3.68,0,0,1-1.06,2.81,4.45,4.45,0,0,1-3.16,1C562.71,35.93,561.3,34.66,561.3,32.12Zm8.07,35.7h-7.74V39.45h7.74Z"/><path class="cls-2" d="M586.47,68.33a9.2,9.2,0,0,1-7.85-3.88q-2.85-3.89-2.86-10.76t2.91-10.87a9.44,9.44,0,0,1,8-3.9,9.28,9.28,0,0,1,8.17,4.16h.25a31.46,31.46,0,0,1-.58-5.65V28.34h7.76V67.82h-5.94l-1.49-3.68h-.33A8.86,8.86,0,0,1,586.47,68.33Zm2.72-6.17a5.24,5.24,0,0,0,4.35-1.72c.92-1.15,1.42-3.11,1.51-5.86v-.84c0-3-.47-5.23-1.41-6.55a5.22,5.22,0,0,0-4.58-2,4.55,4.55,0,0,0-4,2.2,11.66,11.66,0,0,0-1.43,6.38c0,2.79.48,4.89,1.44,6.28A4.72,4.72,0,0,0,589.19,62.16Z"/><path class="cls-2" d="M500,127.29h-7.86V96.74H482.08V90.19h28v6.55H500Z"/><path class="cls-2" d="M525.26,127.8q-6.85,0-10.71-3.78t-3.85-10.71q0-7.12,3.56-11t9.86-3.89q6,0,9.36,3.42t3.35,9.47V115H518.54a7.4,7.4,0,0,0,2,5.15,6.86,6.86,0,0,0,5.12,1.86,21,21,0,0,0,4.85-.54,23.9,23.9,0,0,0,4.77-1.7v6a18,18,0,0,1-4.34,1.51A27.32,27.32,0,0,1,525.26,127.8Zm-1.09-23.9a4.92,4.92,0,0,0-3.86,1.56,7.23,7.23,0,0,0-1.6,4.42h10.86a6.43,6.43,0,0,0-1.49-4.42A5.08,5.08,0,0,0,524.17,103.9Z"/><path class="cls-2" d="M555.64,127.8q-13.25,0-13.24-14.54,0-7.23,3.6-11.05t10.33-3.82a19.65,19.65,0,0,1,8.83,1.93l-2.29,6c-1.22-.49-2.35-.9-3.4-1.21a11.07,11.07,0,0,0-3.14-.47q-6,0-6,8.58,0,8.33,6,8.32a13.7,13.7,0,0,0,4.13-.6,14.88,14.88,0,0,0,3.81-1.86v6.62a12.23,12.23,0,0,1-3.8,1.65A21.46,21.46,0,0,1,555.64,127.8Z"/><path class="cls-2" d="M597,127.29h-7.73V110.72c0-4.09-1.53-6.14-4.57-6.14a5.21,5.21,0,0,0-4.7,2.21q-1.44,2.2-1.44,7.15v13.35h-7.74V87.81h7.74v8c0,.63-.06,2.1-.18,4.42l-.18,2.28h.41q2.58-4.15,8.22-4.16,5,0,7.59,2.69t2.58,7.71Z"/><path class="cls-2" d="M631.18,127.29h-7.74V110.72a8,8,0,0,0-1.09-4.6,4,4,0,0,0-3.48-1.54,5.2,5.2,0,0,0-4.69,2.17c-1,1.45-1.45,3.84-1.45,7.19v13.35H605V98.92h5.91l1,3.63h.43a8.25,8.25,0,0,1,3.57-3.11,12.14,12.14,0,0,1,5.16-1q4.95,0,7.51,2.68c1.71,1.78,2.57,4.36,2.57,7.72Z"/><path class="cls-2" d="M664.92,113.06q0,6.91-3.65,10.83t-10.18,3.91a14.24,14.24,0,0,1-7.2-1.79,11.94,11.94,0,0,1-4.8-5.14,17.34,17.34,0,0,1-1.67-7.81q0-7,3.63-10.81c2.42-2.57,5.81-3.86,10.2-3.86a14.24,14.24,0,0,1,7.2,1.78,11.84,11.84,0,0,1,4.8,5.1A17.16,17.16,0,0,1,664.92,113.06Zm-19.61,0a11.89,11.89,0,0,0,1.38,6.36,4.94,4.94,0,0,0,4.51,2.16,4.87,4.87,0,0,0,4.45-2.14,12.13,12.13,0,0,0,1.36-6.38q0-4.22-1.37-6.32a5.83,5.83,0,0,0-9,0C645.76,108.12,645.31,110.23,645.31,113.06Z"/><path class="cls-2" d="M679.05,127.29h-7.73V87.81h7.73Z"/><path class="cls-2" d="M713,113.06q0,6.91-3.65,10.83t-10.17,3.91a14.26,14.26,0,0,1-7.21-1.79,11.94,11.94,0,0,1-4.8-5.14,17.34,17.34,0,0,1-1.67-7.81q0-7,3.63-10.81t10.2-3.86a14.24,14.24,0,0,1,7.2,1.78,11.84,11.84,0,0,1,4.8,5.1A17.16,17.16,0,0,1,713,113.06Zm-19.61,0a11.89,11.89,0,0,0,1.38,6.36,5,5,0,0,0,4.51,2.16,4.87,4.87,0,0,0,4.45-2.14,12.13,12.13,0,0,0,1.36-6.38q0-4.22-1.37-6.32a5.83,5.83,0,0,0-9,0Q693.34,108.82,693.34,113.06Z"/><path class="cls-2" d="M744.14,127.34q0,6.12-3.57,9.27c-2.38,2.11-5.91,3.16-10.62,3.16a29.93,29.93,0,0,1-10.6-1.67v-6.19a28.12,28.12,0,0,0,11.06,2.18q6,0,6-6.45v-.55l.23-3.48h-.23a9,9,0,0,1-8,4.19,9.11,9.11,0,0,1-7.9-3.94q-2.8-3.93-2.81-10.7,0-7,2.91-10.88a9.43,9.43,0,0,1,8-3.89,9.57,9.57,0,0,1,8.22,4.16H737l.63-3.63h6.55Zm-13-5.61c2.09,0,3.57-.59,4.47-1.79s1.35-3.12,1.35-5.79v-.94q0-4.54-1.41-6.54a5.18,5.18,0,0,0-4.53-2q-5.46,0-5.46,8.58c0,2.84.46,5,1.36,6.37A4.66,4.66,0,0,0,731.09,121.73Z"/><path class="cls-2" d="M748.17,98.92h8.48l5.35,16a22.06,22.06,0,0,1,.94,4.92h.15a22.05,22.05,0,0,1,1.09-4.92l5.25-16h8.3l-12,32a13.9,13.9,0,0,1-4.71,6.65,11.89,11.89,0,0,1-7.14,2.2,17.73,17.73,0,0,1-3.93-.43V133.2a13.18,13.18,0,0,0,3,.33,5.53,5.53,0,0,0,3.59-1.25,8.18,8.18,0,0,0,2.4-3.8l.46-1.39Z"/><path class="cls-2" d="M507.61,178.45a9.6,9.6,0,0,1-3.62,7.92q-3.62,2.9-10.06,2.89a23.6,23.6,0,0,1-10.5-2.23v-7.31a41.78,41.78,0,0,0,6.36,2.36,18.59,18.59,0,0,0,4.75.69,6.75,6.75,0,0,0,4-1,3.37,3.37,0,0,0,1.39-2.94,3.32,3.32,0,0,0-.61-2,7,7,0,0,0-1.79-1.63,45.29,45.29,0,0,0-4.81-2.51,22.84,22.84,0,0,1-5.1-3.07,11.62,11.62,0,0,1-2.71-3.43,9.72,9.72,0,0,1-1-4.57,9.58,9.58,0,0,1,3.34-7.74q3.33-2.81,9.22-2.81a22.08,22.08,0,0,1,5.52.68,38.15,38.15,0,0,1,5.49,1.93l-2.54,6.12a35.5,35.5,0,0,0-4.9-1.7,16,16,0,0,0-3.82-.49,5.09,5.09,0,0,0-3.43,1,3.46,3.46,0,0,0-1.19,2.72,3.35,3.35,0,0,0,.48,1.81,5.14,5.14,0,0,0,1.54,1.5,47.25,47.25,0,0,0,5,2.6q5.2,2.49,7.13,5A9.69,9.69,0,0,1,507.61,178.45Z"/><path class="cls-2" d="M539.5,174.52q0,6.93-3.65,10.84t-10.17,3.9a14.15,14.15,0,0,1-7.21-1.79,11.92,11.92,0,0,1-4.8-5.13,17.38,17.38,0,0,1-1.67-7.82q0-6.95,3.63-10.81t10.2-3.85a14.34,14.34,0,0,1,7.2,1.77,12,12,0,0,1,4.8,5.1A17.06,17.06,0,0,1,539.5,174.52Zm-19.61,0a11.93,11.93,0,0,0,1.38,6.37,5,5,0,0,0,4.51,2.16,4.87,4.87,0,0,0,4.45-2.15,12.11,12.11,0,0,0,1.36-6.38,11.77,11.77,0,0,0-1.37-6.32,5.84,5.84,0,0,0-9,0Q519.9,170.29,519.89,174.52Z"/><path class="cls-2" d="M553.64,188.76H545.9V149.28h7.74Z"/><path class="cls-2" d="M581.85,188.76l-1-3.63h-.41a8,8,0,0,1-3.52,3.05,12.06,12.06,0,0,1-5.2,1.08q-5,0-7.54-2.67c-1.69-1.79-2.54-4.35-2.54-7.7v-18.5h7.74V177a8,8,0,0,0,1.09,4.6,4,4,0,0,0,3.48,1.54,5.21,5.21,0,0,0,4.69-2.17q1.46-2.18,1.45-7.2V160.39h7.74v28.37Z"/><path class="cls-2" d="M607.86,183.1a16.84,16.84,0,0,0,4.87-.89V188a17.43,17.43,0,0,1-7.1,1.29c-3.1,0-5.35-.78-6.77-2.34s-2.11-3.91-2.11-7V166.2H593v-3.27l4.26-2.59,2.24-6h4.94v6h7.95v5.81h-7.95v13.68a3,3,0,0,0,.93,2.43A3.63,3.63,0,0,0,607.86,183.1Z"/><path class="cls-2" d="M618.13,153.06q0-3.78,4.22-3.78c2.8,0,4.21,1.26,4.21,3.78a3.69,3.69,0,0,1-1,2.8,4.44,4.44,0,0,1-3.16,1Q618.14,156.86,618.13,153.06Zm8.07,35.7h-7.74V160.39h7.74Z"/><path class="cls-2" d="M659.1,174.52q0,6.93-3.65,10.84t-10.18,3.9a14.14,14.14,0,0,1-7.2-1.79,11.92,11.92,0,0,1-4.8-5.13,17.38,17.38,0,0,1-1.67-7.82q0-6.95,3.63-10.81t10.2-3.85a14.34,14.34,0,0,1,7.2,1.77,12,12,0,0,1,4.8,5.1A17.19,17.19,0,0,1,659.1,174.52Zm-19.61,0a11.93,11.93,0,0,0,1.38,6.37,4.94,4.94,0,0,0,4.51,2.16,4.87,4.87,0,0,0,4.45-2.15,12.12,12.12,0,0,0,1.35-6.38c0-2.81-.45-4.91-1.37-6.32a5.83,5.83,0,0,0-8.95,0C639.94,169.59,639.49,171.7,639.49,174.52Z"/><path class="cls-2" d="M690.68,188.76h-7.74V172.19a8,8,0,0,0-1.09-4.61,4,4,0,0,0-3.48-1.53,5.21,5.21,0,0,0-4.69,2.17c-1,1.44-1.45,3.84-1.45,7.19v13.35H664.5V160.39h5.91l1,3.63h.43a8.16,8.16,0,0,1,3.56-3.11,12.21,12.21,0,0,1,5.17-1q4.95,0,7.51,2.67c1.71,1.79,2.56,4.36,2.56,7.73Z"/><path class="cls-2" d="M718.44,180.33a7.81,7.81,0,0,1-3,6.65c-2,1.52-5,2.28-9.07,2.28a29.32,29.32,0,0,1-5.28-.41,19.47,19.47,0,0,1-4.09-1.24v-6.39a27.08,27.08,0,0,0,4.86,1.7,19.55,19.55,0,0,0,4.76.69c2.81,0,4.21-.82,4.21-2.44a2,2,0,0,0-.56-1.49,8.19,8.19,0,0,0-1.93-1.29c-.91-.48-2.13-1-3.65-1.69a23.48,23.48,0,0,1-4.81-2.53,7.21,7.21,0,0,1-2.23-2.68,8.79,8.79,0,0,1-.7-3.72,6.75,6.75,0,0,1,2.93-5.85q2.94-2.05,8.31-2.06a23.54,23.54,0,0,1,10,2.23l-2.33,5.58c-1.42-.61-2.75-1.11-4-1.5a12.84,12.84,0,0,0-3.78-.58c-2.29,0-3.43.62-3.43,1.85a2.17,2.17,0,0,0,1.1,1.8,30.12,30.12,0,0,0,4.84,2.26,23.08,23.08,0,0,1,4.87,2.51,7.49,7.49,0,0,1,2.28,2.69A8.31,8.31,0,0,1,718.44,180.33Z"/><rect class="cls-2" x="24.13" y="218.74" width="755.07" height="5.5"/></svg>