<svg width="171" height="50" xmlns="http://www.w3.org/2000/svg" xmlns:xlink="http://www.w3.org/1999/xlink"><defs><path id="a" d="M0 44.488h176.994V0H0z"/><path id="c" d="M0 0h169v7H0z"/></defs><g fill="none" fill-rule="evenodd"><g transform="translate(-3 -3)"><path d="M9.392 17.957c.048.222.096.5.362.832.505.61 1.613.888 2.577.888 1.133 0 2.24-.36 2.24-1.276a.76.76 0 0 0-.168-.5c-.314-.416-1.205-.554-2.987-.86-1.012-.167-2-.361-2.988-.61-2.48-.665-4.167-1.387-4.167-4.162 0-4.69 6.24-4.745 7.973-4.745 3.686 0 7.276 1.027 8.094 4.884l-5.636.276c-.24-1.47-2.288-1.58-2.818-1.58-1.085 0-2.024.36-2.024 1.165 0 .472.337.72 1.084.943.699.222 4.288.694 5.106.832 1.927.361 4.313.833 4.313 3.802 0 1.443-.627 2.358-1.205 3.024-1.06 1.138-2.866 2.331-6.914 2.331-2.746 0-5.227-.555-6.576-1.36-1.47-.887-1.879-2.08-1.999-3.607l5.733-.277zm18.282-2.581c0 1.748 1.085 3.357 2.987 3.357 1.928 0 2.915-1.552 2.915-3.357 0-1.554-.867-3.413-3.084-3.274-2.336.139-2.818 2.165-2.818 3.274zm-.024-5.881c.65-.61 1.927-1.833 4.649-1.833 3.517 0 7.01 2.415 7.01 7.853 0 4.495-2.698 7.741-7.01 7.741-2.409 0-3.71-.998-4.65-1.748v6.383h-5.612V8.024h5.637v1.331l-.024.14z" fill="#FFF"/><mask id="b" fill="#fff"><use xlink:href="#a"/></mask><path d="M40.804 22.729h5.636V8.052h-5.636V22.73zm-.025-16.175h5.661V3.141h-5.66v3.413zm13.706 3.8a5.052 5.052 0 0 1 1.76-1.858c1.06-.667 1.926-.721 2.65-.75v5.799a10.21 10.21 0 0 0-1.35-.11c-1.518 0-2.12.387-2.48.776-.555.583-.58 1.277-.603 1.942v6.576h-5.661V8.024h5.684v2.33zm12.694 5.882c-.819.084-2.312.25-2.312 1.554 0 .444.29 1.47 2 1.47a4.81 4.81 0 0 0 2.697-.832c1.156-.749 1.35-1.637 1.518-2.44-.94.054-2.94.137-3.903.248zm-7.516-3.606c.145-.944.41-2.664 1.952-3.745 1.204-.833 3.42-1.36 6.432-1.36 2.553 0 4.986.25 6.384 1.054 2.07 1.137 2.07 3.329 2.07 4.327v7.686c.025 1.138.146 1.554.7 2.165h-5.903c-.144-.582-.167-.75-.216-1.415-1.47.721-3.662 1.831-6.336 1.831-1.446 0-2.964-.277-4.12-1.304-.986-.833-1.493-2.025-1.493-3.413 0-.86.217-1.831.675-2.552.41-.639 1.157-1.276 2.264-1.665 2.12-.75 6.143-.833 8.913-.888 0-.388 0-.776-.289-1.194-.216-.304-.699-.86-2.457-.86-.289 0-1.18.057-1.807.223-1.011.277-1.156.72-1.3 1.11h-5.469z" fill="#FFF" mask="url(#b)"/><path fill="#FFF" mask="url(#b)" d="M85.185 8.135 87.845 12l3.29-3.865 6.576.03-6.485 6.983 6.664 7.623h-6.856l-2.926-4.047-15.846 20.912H61.614l23.413-24.197-6.724-7.304z"/><path d="M92.84 34.863c.05.222.098.5.362.833.506.61 1.614.888 2.577.888 1.133 0 2.24-.361 2.24-1.276a.758.758 0 0 0-.168-.5c-.313-.416-1.204-.555-2.987-.86a35.483 35.483 0 0 1-2.986-.611c-2.482-.666-4.169-1.387-4.169-4.16 0-4.69 6.24-4.745 7.974-4.745 3.686 0 7.275 1.026 8.094 4.883l-5.637.277c-.24-1.47-2.289-1.58-2.818-1.58-1.084 0-2.023.36-2.023 1.164 0 .472.337.721 1.083.944.699.222 4.288.693 5.108.831 1.926.361 4.312.833 4.312 3.802 0 1.442-.627 2.357-1.205 3.023-1.06 1.138-2.866 2.332-6.914 2.332-2.745 0-5.228-.556-6.576-1.36-1.47-.888-1.879-2.081-2-3.607l5.734-.278zm20.064-1.72c-.82.084-2.312.25-2.312 1.554 0 .444.289 1.47 1.999 1.47a4.8 4.8 0 0 0 2.698-.832c1.156-.749 1.349-1.637 1.517-2.44-.94.054-2.939.138-3.902.248zm-7.516-3.606c.145-.943.41-2.664 1.951-3.745 1.204-.833 3.421-1.36 6.433-1.36 2.553 0 4.986.25 6.383 1.054 2.072 1.138 2.072 3.33 2.072 4.328V37.5c.024 1.138.144 1.554.698 2.165h-5.901c-.146-.583-.17-.75-.218-1.416-1.47.722-3.662 1.831-6.335 1.831-1.446 0-2.963-.276-4.119-1.303-.988-.833-1.494-2.025-1.494-3.414 0-.86.217-1.83.675-2.551.409-.639 1.156-1.276 2.263-1.664 2.121-.75 6.144-.833 8.914-.89 0-.387 0-.775-.29-1.192-.216-.305-.697-.86-2.456-.86-.29 0-1.18.055-1.807.222-1.012.277-1.156.722-1.301 1.11h-5.468zm24.93-2.275a5.055 5.055 0 0 1 1.76-1.86c1.06-.665 1.926-.72 2.65-.748v5.799a10.193 10.193 0 0 0-1.35-.112c-1.518 0-2.12.388-2.48.778-.555.582-.58 1.275-.603 1.941v6.576h-5.661V24.932h5.684v2.33zm10.84 4.938c0 2.359 1.397 4.05 3.734 4.05.65 0 1.542-.138 2.264-.72.7-.528.892-1.083 1.085-1.61l5.661.223c-.217.831-.674 2.385-2.168 3.745-2.144 1.969-5.155 2.22-7.251 2.22-2.795 0-6-.694-7.854-3.053-.891-1.11-1.541-2.857-1.541-4.743 0-2.998 1.541-4.94 2.6-5.855 1.929-1.692 4.651-2.192 7.204-2.192 2.987 0 5.686.916 7.324 2.83.915 1.11 1.18 2.08 1.349 2.636l-5.613.583c-.386-1.36-1.783-2.109-3.156-2.109-2.096 0-3.638 1.554-3.638 3.995m19.39 0c0 2.968 2 3.856 3.687 3.856 1.156 0 3.469-.666 3.469-3.856 0-2.413-1.445-3.884-3.83-3.8-2.555.082-3.325 2.163-3.325 3.8m13.009.055c0 5.19-4.168 7.77-9.443 7.77-4.481 0-9.444-1.943-9.444-7.713 0-5.522 4.505-7.686 9.034-7.77 7.492-.11 9.853 3.996 9.853 7.713" fill="#FFF" mask="url(#b)"/></g><g transform="translate(1 43)"><mask id="d" fill="#fff"><use xlink:href="#c"/></mask><path d="M166.286 4.984c.14.037.381.093.381.353 0 .076-.017.382-.57.382-.126 0-.317-.009-.506-.046-.464-.095-.513-.354-.538-.503l-1.977.085c.033.222.075.455.158.64.222.512.958 1.04 2.514 1.04.62 0 1.1-.046 1.555-.176.811-.24 1.374-.734 1.374-1.551 0-.306-.1-.624-.273-.838-.297-.37-.794-.465-1.531-.604l-.927-.176c-.132-.029-.355-.104-.355-.309 0-.111.067-.39.63-.39.751 0 .95.279.95.55L169 3.366c-.034-.233-.067-.466-.15-.66-.19-.426-.653-.697-1.1-.846-.388-.13-.76-.14-1.15-.14-.852 0-1.513.048-2.068.354-.752.41-.835 1.05-.835 1.292 0 .269.099.548.256.753.322.41.877.54 1.324.642l1.009.223zm-8.397-3.124H156l-1.016 4.927h1.894l.488-2.38c.116-.428.323-1.21 1.083-1.21.58 0 .705.484.705.754a1.4 1.4 0 0 1-.042.326l-.514 2.51h1.911l.563-2.733a4.59 4.59 0 0 0 .083-.754c0-1.013-.638-1.57-1.588-1.57-.513 0-1.15.196-1.564.567a3.674 3.674 0 0 0-.257.26l.142-.697zm-7.984 1.182c.942-.011 1.108.742 1.108 1.115 0 .465-.256 1.421-1.357 1.421-.803 0-1.126-.548-1.126-1.106 0-.046 0-1.413 1.375-1.43zm.198-1.331c-.712-.01-1.424.067-2.068.381-.472.243-.919.613-1.176 1.116a2.581 2.581 0 0 0-.29 1.227c0 .557.158 1.143.489 1.553.256.334.62.548 1 .697.48.176.993.233 1.49.233 2.267 0 3.492-1.31 3.492-2.846 0-.465-.116-.93-.357-1.292-.686-1.05-2.084-1.06-2.58-1.07zm-8.414 5.076h1.901l1.01-4.927h-1.903l-1.008 4.927zm1.108-5.42h1.91l.232-1.143h-1.91l-.232 1.143zm-5.246.716h-.62l-.265 1.264h.621l-.396 1.98a2.62 2.62 0 0 0-.051.456c0 .901.662 1.022 1.58 1.022.306 0 .621-.008.935-.018l.272-1.347c-.43.009-.76.02-.76-.419 0-.064.016-.13.025-.204l.306-1.47h.743l.249-1.264h-.736l.282-1.376h-1.888l-.297 1.376zm-8.91 2.602a4.589 4.589 0 0 0-.05.568c0 .473.173.984.488 1.283.306.297.736.382 1.158.382.86 0 1.25-.336 1.779-.8l-.142.669h1.855l1.016-4.927h-1.844l-.438 2.12c-.142.539-.373 1.469-1.266 1.469-.265 0-.456-.112-.546-.223-.182-.213-.117-.67-.034-1.078l.464-2.288h-1.87l-.57 2.825zm-5.03 2.102h1.918l1.348-6.563h-1.919l-1.348 6.563zm-5.073-3.745c.945-.011 1.11.742 1.11 1.115 0 .465-.257 1.421-1.357 1.421-.804 0-1.127-.548-1.127-1.106 0-.046 0-1.413 1.374-1.43zm.199-1.331c-.712-.01-1.423.067-2.068.381-.473.243-.919.613-1.174 1.116-.2.363-.291.791-.291 1.227 0 .557.157 1.143.489 1.553.255.334.62.548 1 .697.48.176.992.233 1.489.233 2.267 0 3.491-1.31 3.491-2.846 0-.465-.115-.93-.355-1.292-.687-1.05-2.085-1.06-2.581-1.07zM106.73 4.779c0 .447.017.994.481 1.47.281.287 1.025.751 2.465.751.754 0 1.423-.1 1.994-.408 1.018-.549 1.232-1.45 1.232-1.933 0-.28-.058-.558-.182-.81-.265-.539-.753-.687-1.356-.909l-1.233-.392c-.307-.103-.72-.262-.72-.586 0-.252.273-.513.91-.513.687 0 1.076.243 1.027.652l1.877-.167c0-.457-.017-1.199-1.042-1.656-.506-.222-1.052-.278-1.606-.278-1.033 0-1.63.16-2.076.391-.662.344-1.083.966-1.083 1.775 0 .195.032.42.115.632.257.67.886.895 1.324 1.051l1.035.344c.62.206.966.28.966.68 0 .418-.363.66-.984.679-.339.01-.736-.038-.992-.252-.224-.194-.257-.436-.257-.614l-1.895.093zM93.534 1.86h-1.878L90.64 6.788h1.894l.497-2.399c.124-.548.264-1.2.927-1.2.504 0 .57.391.57.56 0 .111-.015.212-.066.417l-.538 2.622h1.904l.563-2.705c.074-.308.214-.894.835-.894.231 0 .587.066.587.567 0 .121-.025.26-.074.465l-.522 2.567h1.877l.53-2.595c.1-.53.141-.78.141-1.013 0-.984-.662-1.449-1.497-1.449-.975 0-1.506.577-1.755.836-.115-.231-.413-.845-1.38-.845-.911 0-1.464.548-1.722.799l.124-.66zM86.41 4.603c-.283 1.171-2.175 1.331-2.175.606 0-.615 1.413-.606 2.175-.606zM84.7 3.376c.14-.389.545-.42 1.008-.429.405-.007 1.027.085.894.747-1.49.073-3.143-.01-3.847.593a1.609 1.609 0 0 0-.545 1.19c0 .874.702 1.46 1.769 1.46 1.091 0 1.736-.429 2.148-.706a2.097 2.097 0 0 0-.008.557h2.046a1.426 1.426 0 0 1-.05-.836l.372-1.85c.058-.278.117-.568.117-.864 0-1.228-.887-1.526-2.633-1.526-.77 0-1.959.037-2.597.642-.322.28-.42.565-.56 1.022H84.7zm-8.705.42c.091-.224.207-.495.621-.662.165-.074.346-.102.528-.102.853 0 1.019.522 1.1.764h-2.25zm4.17.956c-.025-.5-.042-1.003-.216-1.451a2.414 2.414 0 0 0-.934-1.123c-.564-.363-1.233-.456-1.92-.456-.628 0-1.248.093-1.803.39-.868.465-1.448 1.358-1.448 2.351 0 .512.157 1.034.439 1.434.298.398.735.668 1.183.827.447.149.91.195 1.365.195.654 0 1.481-.085 2.158-.493.546-.334.72-.688.894-1.022l-2.01-.14c-.232.205-.43.39-.892.39a1.32 1.32 0 0 1-.68-.176c-.282-.187-.347-.391-.438-.726h4.302zM69.408 2.083h-.62l-.265 1.264h.621l-.398 1.98c-.024.15-.05.297-.05.456 0 .901.662 1.022 1.582 1.022.305 0 .62-.008.934-.018l.272-1.347c-.43.009-.76.02-.76-.419 0-.064.016-.13.024-.204l.306-1.47h.745l.248-1.264h-.736l.281-1.376h-1.885l-.299 1.376zm-9.307 2.696c0 .447.016.994.48 1.47.281.287 1.025.751 2.464.751.754 0 1.424-.1 1.995-.408 1.017-.549 1.231-1.45 1.231-1.933 0-.28-.057-.558-.182-.81-.264-.539-.752-.687-1.356-.909L63.5 2.548c-.307-.103-.72-.262-.72-.586 0-.252.273-.513.91-.513.686 0 1.075.243 1.026.652l1.878-.167c0-.457-.018-1.199-1.042-1.656C65.047.056 64.5 0 63.947 0c-1.034 0-1.629.16-2.076.391-.662.344-1.084.966-1.084 1.775 0 .195.033.42.115.632.257.67.886.895 1.325 1.051l1.034.344c.62.206.968.28.968.68 0 .418-.365.66-.985.679-.339.01-.736-.038-.993-.252-.223-.194-.256-.436-.256-.614l-1.894.093zM52.43 1.86h-1.903L49.52 6.788h1.91c.115-.62.38-1.936.504-2.383.076-.297.216-.807 1.035-.807.224 0 .43.049.636.095l.398-1.944c-.1-.008-.198-.027-.297-.027-.737 0-1.217.622-1.432.911l.157-.772zm-7.992 1.183c.943-.011 1.109.742 1.109 1.115 0 .465-.257 1.421-1.358 1.421-.803 0-1.125-.548-1.125-1.106 0-.046 0-1.413 1.374-1.43zm.198-1.331c-.71-.01-1.423.067-2.067.381-.472.243-.92.613-1.176 1.116a2.569 2.569 0 0 0-.289 1.227c0 .557.158 1.143.487 1.553.257.334.621.548 1.001.697.48.176.993.233 1.49.233 2.268 0 3.49-1.31 3.49-2.846 0-.465-.114-.93-.355-1.292-.685-1.05-2.085-1.06-2.58-1.07zM38.605.224c-.505-.02-.935.046-1.283.38-.157.158-.297.437-.371.763l-.175.734h-.662l-.256 1.264h.663l-.704 3.422h1.912l.701-3.43h.753l.265-1.256h-.827c.083-.426.132-.724.596-.724.123 0 .256.018.371.036l.24-1.189h-1.223zM26.64 2.083h-.62l-.265 1.264h.62l-.396 1.98c-.025.15-.05.297-.05.456 0 .901.662 1.022 1.58 1.022.306 0 .62-.008.935-.018l.272-1.347c-.43.009-.761.02-.761-.419 0-.064.016-.13.024-.204l.308-1.47h.744l.248-1.264h-.737l.282-1.376h-1.887l-.297 1.376zm-5.56 2.9c.14.038.38.094.38.354 0 .076-.016.382-.57.382-.124 0-.315-.009-.505-.046-.463-.095-.514-.354-.537-.503l-1.978.085c.033.222.075.455.158.64.223.512.96 1.04 2.513 1.04.621 0 1.102-.046 1.556-.176.81-.24 1.373-.734 1.373-1.551 0-.306-.099-.624-.272-.838-.298-.37-.795-.465-1.53-.604l-.927-.176c-.133-.029-.356-.104-.356-.309 0-.111.066-.39.628-.39.754 0 .952.279.952.55l1.828-.075c-.033-.233-.065-.466-.148-.66-.191-.426-.654-.697-1.102-.846-.389-.13-.76-.14-1.15-.14-.852 0-1.513.048-2.068.354-.752.41-.834 1.05-.834 1.292 0 .269.1.548.256.753.323.41.876.54 1.324.642l1.01.223zm-5.8-3.123h-1.903L12.37 6.787h1.91c.115-.62.38-1.936.504-2.383.076-.297.215-.807 1.035-.807.223 0 .43.049.637.095l.396-1.944c-.1-.008-.198-.027-.297-.027-.736 0-1.216.622-1.431.911l.157-.772zM7.794 6.787h1.901l1.011-4.927H8.803l-1.01 4.927zm1.108-5.42h1.91l.232-1.143h-1.91l-.232 1.143zM0 6.787h2.052l.487-2.343h3.334l.306-1.468H2.846l.264-1.275h3.533L6.949.224H1.357L0 6.787z" fill="#FFF" mask="url(#d)"/></g></g></svg>
